<svg width="225" height="22" viewBox="0 0 225 22" fill="none" xmlns="http://www.w3.org/2000/svg">
<path d="M0.15625 13.5199V10.5199L12.1562 5.23579V8.6875L3.94034 11.9858L4.05114 11.8068V12.233L3.94034 12.054L12.1562 15.3523V18.804L0.15625 13.5199ZM23.3636 0.727272L17.7386 21.625H14.6108L20.2358 0.727272H23.3636Z" fill="#2041B4"/>
<path d="M31.9332 1.54545H35.1293L40.6861 15.1136H40.8906L46.4474 1.54545H49.6435V19H47.1378V6.36932H46.9759L41.8281 18.9744H39.7486L34.6009 6.36079H34.4389V19H31.9332V1.54545ZM57.0774 19.2898C56.2479 19.2898 55.4979 19.1364 54.8274 18.8295C54.157 18.517 53.6257 18.0653 53.2337 17.4744C52.8473 16.8835 52.6541 16.1591 52.6541 15.3011C52.6541 14.5625 52.7962 13.9545 53.0803 13.4773C53.3643 13 53.7479 12.6222 54.2308 12.3438C54.7138 12.0653 55.2536 11.8551 55.8501 11.7131C56.4467 11.571 57.0547 11.4631 57.674 11.3892C58.4581 11.2983 59.0945 11.2244 59.5831 11.1676C60.0717 11.1051 60.4268 11.0057 60.6484 10.8693C60.87 10.733 60.9808 10.5114 60.9808 10.2045V10.1449C60.9808 9.40057 60.7706 8.82386 60.3501 8.41477C59.9354 8.00568 59.3161 7.80114 58.4922 7.80114C57.6342 7.80114 56.9581 7.99148 56.4638 8.37216C55.9751 8.74716 55.6371 9.16477 55.4496 9.625L53.0547 9.07955C53.3388 8.28409 53.7536 7.64205 54.299 7.15341C54.8501 6.65909 55.4837 6.30114 56.1996 6.07954C56.9155 5.85227 57.6683 5.73864 58.4581 5.73864C58.9808 5.73864 59.5348 5.80114 60.12 5.92614C60.7109 6.04545 61.2621 6.26705 61.7734 6.59091C62.2905 6.91477 62.7138 7.37784 63.0433 7.98011C63.3729 8.5767 63.5376 9.35227 63.5376 10.3068V19H61.049V17.2102H60.9467C60.782 17.5398 60.5348 17.8636 60.2053 18.1818C59.8757 18.5 59.4524 18.7642 58.9354 18.9744C58.4183 19.1847 57.799 19.2898 57.0774 19.2898ZM57.6314 17.2443C58.3359 17.2443 58.9382 17.1051 59.4382 16.8267C59.9439 16.5483 60.3274 16.1847 60.5888 15.7358C60.8558 15.2812 60.9893 14.7955 60.9893 14.2784V12.5909C60.8984 12.6818 60.7223 12.767 60.4609 12.8466C60.2053 12.9205 59.9126 12.9858 59.5831 13.0426C59.2536 13.0937 58.9325 13.142 58.62 13.1875C58.3075 13.2273 58.0462 13.2614 57.8359 13.2898C57.3416 13.3523 56.8899 13.4574 56.4808 13.6051C56.0774 13.7528 55.7536 13.9659 55.5092 14.2443C55.2706 14.517 55.1513 14.8807 55.1513 15.3352C55.1513 15.9659 55.3842 16.4432 55.8501 16.767C56.3161 17.0852 56.9098 17.2443 57.6314 17.2443ZM73.0426 5.90909V7.95455H65.892V5.90909H73.0426ZM67.8097 2.77273H70.358V15.1562C70.358 15.6506 70.4318 16.0227 70.5795 16.2727C70.7273 16.517 70.9176 16.6847 71.1506 16.7756C71.3892 16.8608 71.6477 16.9034 71.9261 16.9034C72.1307 16.9034 72.3097 16.8892 72.4631 16.8608C72.6165 16.8324 72.7358 16.8097 72.821 16.7926L73.2812 18.8977C73.1335 18.9545 72.9233 19.0114 72.6506 19.0682C72.3778 19.1307 72.0369 19.1648 71.6278 19.1705C70.9574 19.1818 70.3324 19.0625 69.7528 18.8125C69.1733 18.5625 68.7045 18.1761 68.3466 17.6534C67.9886 17.1307 67.8097 16.4744 67.8097 15.6847V2.77273ZM81.3629 19.2642C80.0732 19.2642 78.9624 18.9886 78.0305 18.4375C77.1044 17.8807 76.3885 17.0994 75.8828 16.0938C75.3828 15.0824 75.1328 13.8977 75.1328 12.5398C75.1328 11.1989 75.3828 10.017 75.8828 8.99432C76.3885 7.97159 77.093 7.1733 77.9964 6.59943C78.9055 6.02557 79.968 5.73864 81.1839 5.73864C81.9226 5.73864 82.6385 5.8608 83.3317 6.10511C84.0249 6.34943 84.647 6.73295 85.1982 7.25568C85.7493 7.77841 86.1839 8.45739 86.5021 9.29261C86.8203 10.1222 86.9794 11.1307 86.9794 12.3182V13.2216H76.5732V11.3125H84.4822C84.4822 10.642 84.3459 10.0483 84.0732 9.53125C83.8004 9.00852 83.4169 8.59659 82.9226 8.29545C82.4339 7.99432 81.8601 7.84375 81.201 7.84375C80.4851 7.84375 79.8601 8.01989 79.326 8.37216C78.7976 8.71875 78.3885 9.1733 78.0987 9.7358C77.8146 10.2926 77.6726 10.8977 77.6726 11.5511V13.0426C77.6726 13.9176 77.826 14.6619 78.1328 15.2756C78.4453 15.8892 78.88 16.358 79.4368 16.6818C79.9936 17 80.6442 17.1591 81.3885 17.1591C81.8714 17.1591 82.3118 17.0909 82.7095 16.9545C83.1072 16.8125 83.451 16.6023 83.7408 16.3239C84.0305 16.0455 84.2521 15.7017 84.4055 15.2926L86.8175 15.7273C86.6243 16.4375 86.2777 17.0597 85.7777 17.5938C85.2834 18.1222 84.6612 18.5341 83.9112 18.8295C83.1669 19.1193 82.3175 19.2642 81.3629 19.2642ZM98.0994 13.571V5.90909H100.656V19H98.1506V16.733H98.0142C97.7131 17.4318 97.2301 18.0142 96.5653 18.4801C95.9063 18.9403 95.0852 19.1705 94.1023 19.1705C93.2614 19.1705 92.517 18.9858 91.8693 18.6165C91.2273 18.2415 90.7216 17.6875 90.3523 16.9545C89.9886 16.2216 89.8068 15.3153 89.8068 14.2358V5.90909H92.3551V13.929C92.3551 14.821 92.6023 15.5312 93.0966 16.0597C93.5909 16.5881 94.233 16.8523 95.0227 16.8523C95.5 16.8523 95.9744 16.733 96.446 16.4943C96.9233 16.2557 97.3182 15.8949 97.6307 15.4119C97.9489 14.929 98.1051 14.3153 98.0994 13.571ZM113.89 9.10511L111.58 9.5142C111.484 9.21875 111.33 8.9375 111.12 8.67045C110.915 8.40341 110.637 8.18466 110.285 8.0142C109.933 7.84375 109.492 7.75852 108.964 7.75852C108.242 7.75852 107.64 7.92045 107.157 8.24432C106.674 8.5625 106.433 8.97443 106.433 9.48011C106.433 9.91761 106.594 10.2699 106.918 10.5369C107.242 10.804 107.765 11.0227 108.487 11.1932L110.566 11.6705C111.771 11.9489 112.668 12.3778 113.259 12.9574C113.85 13.5369 114.146 14.2898 114.146 15.2159C114.146 16 113.918 16.6989 113.464 17.3125C113.015 17.9205 112.387 18.3977 111.58 18.7443C110.779 19.0909 109.85 19.2642 108.793 19.2642C107.327 19.2642 106.131 18.9517 105.205 18.3267C104.279 17.696 103.711 16.8011 103.501 15.642L105.964 15.267C106.117 15.9091 106.433 16.3949 106.91 16.7244C107.387 17.0483 108.009 17.2102 108.776 17.2102C109.612 17.2102 110.279 17.0369 110.779 16.6903C111.279 16.3381 111.529 15.9091 111.529 15.4034C111.529 14.9943 111.376 14.6506 111.069 14.3722C110.768 14.0937 110.305 13.8835 109.68 13.7415L107.464 13.2557C106.242 12.9773 105.339 12.5341 104.754 11.9261C104.174 11.3182 103.884 10.5483 103.884 9.61648C103.884 8.84375 104.1 8.16761 104.532 7.58807C104.964 7.00852 105.56 6.55682 106.322 6.23295C107.083 5.90341 107.955 5.73864 108.938 5.73864C110.353 5.73864 111.467 6.04545 112.279 6.65909C113.092 7.26705 113.629 8.08239 113.89 9.10511ZM135.316 7.05966C135.151 6.54261 134.93 6.07955 134.651 5.67045C134.379 5.25568 134.052 4.90341 133.671 4.61364C133.29 4.31818 132.856 4.09375 132.367 3.94034C131.884 3.78693 131.353 3.71023 130.773 3.71023C129.79 3.71023 128.904 3.96307 128.114 4.46875C127.325 4.97443 126.7 5.71591 126.239 6.69318C125.785 7.66477 125.558 8.85511 125.558 10.2642C125.558 11.679 125.788 12.875 126.248 13.8523C126.708 14.8295 127.339 15.571 128.14 16.0767C128.941 16.5824 129.853 16.8352 130.876 16.8352C131.825 16.8352 132.651 16.642 133.356 16.2557C134.066 15.8693 134.614 15.3239 135.001 14.6193C135.393 13.9091 135.589 13.0739 135.589 12.1136L136.271 12.2415H131.276V10.0682H138.137V12.054C138.137 13.5199 137.825 14.7926 137.2 15.8722C136.58 16.946 135.722 17.7756 134.626 18.3608C133.535 18.946 132.285 19.2386 130.876 19.2386C129.296 19.2386 127.91 18.875 126.717 18.1477C125.529 17.4205 124.603 16.3892 123.938 15.054C123.273 13.7131 122.941 12.1222 122.941 10.2812C122.941 8.8892 123.134 7.6392 123.521 6.53125C123.907 5.4233 124.45 4.48295 125.148 3.71023C125.853 2.93182 126.68 2.33807 127.629 1.92898C128.583 1.5142 129.626 1.30682 130.756 1.30682C131.7 1.30682 132.577 1.44602 133.39 1.72443C134.208 2.00284 134.935 2.39773 135.572 2.90909C136.214 3.42045 136.745 4.02841 137.165 4.73295C137.586 5.43182 137.87 6.20739 138.018 7.05966H135.316ZM145.085 19.2898C144.256 19.2898 143.506 19.1364 142.835 18.8295C142.165 18.517 141.634 18.0653 141.241 17.4744C140.855 16.8835 140.662 16.1591 140.662 15.3011C140.662 14.5625 140.804 13.9545 141.088 13.4773C141.372 13 141.756 12.6222 142.239 12.3438C142.722 12.0653 143.261 11.8551 143.858 11.7131C144.455 11.571 145.063 11.4631 145.682 11.3892C146.466 11.2983 147.102 11.2244 147.591 11.1676C148.08 11.1051 148.435 11.0057 148.656 10.8693C148.878 10.733 148.989 10.5114 148.989 10.2045V10.1449C148.989 9.40057 148.778 8.82386 148.358 8.41477C147.943 8.00568 147.324 7.80114 146.5 7.80114C145.642 7.80114 144.966 7.99148 144.472 8.37216C143.983 8.74716 143.645 9.16477 143.457 9.625L141.062 9.07955C141.347 8.28409 141.761 7.64205 142.307 7.15341C142.858 6.65909 143.491 6.30114 144.207 6.07954C144.923 5.85227 145.676 5.73864 146.466 5.73864C146.989 5.73864 147.543 5.80114 148.128 5.92614C148.719 6.04545 149.27 6.26705 149.781 6.59091C150.298 6.91477 150.722 7.37784 151.051 7.98011C151.381 8.5767 151.545 9.35227 151.545 10.3068V19H149.057V17.2102H148.955C148.79 17.5398 148.543 17.8636 148.213 18.1818C147.884 18.5 147.46 18.7642 146.943 18.9744C146.426 19.1847 145.807 19.2898 145.085 19.2898ZM145.639 17.2443C146.344 17.2443 146.946 17.1051 147.446 16.8267C147.952 16.5483 148.335 16.1847 148.597 15.7358C148.864 15.2812 148.997 14.7955 148.997 14.2784V12.5909C148.906 12.6818 148.73 12.767 148.469 12.8466C148.213 12.9205 147.92 12.9858 147.591 13.0426C147.261 13.0937 146.94 13.142 146.628 13.1875C146.315 13.2273 146.054 13.2614 145.844 13.2898C145.349 13.3523 144.898 13.4574 144.489 13.6051C144.085 13.7528 143.761 13.9659 143.517 14.2443C143.278 14.517 143.159 14.8807 143.159 15.3352C143.159 15.9659 143.392 16.4432 143.858 16.767C144.324 17.0852 144.918 17.2443 145.639 17.2443ZM155.144 19V1.54545H157.692V8.03125H157.846C157.994 7.75852 158.207 7.44318 158.485 7.08523C158.763 6.72727 159.15 6.41477 159.644 6.14773C160.138 5.875 160.792 5.73864 161.604 5.73864C162.661 5.73864 163.604 6.00568 164.434 6.53977C165.263 7.07386 165.914 7.84375 166.386 8.84943C166.863 9.85511 167.102 11.0653 167.102 12.4801C167.102 13.8949 166.866 15.108 166.394 16.1193C165.923 17.125 165.275 17.9006 164.451 18.446C163.627 18.9858 162.687 19.2557 161.63 19.2557C160.835 19.2557 160.184 19.1222 159.678 18.8551C159.178 18.5881 158.786 18.2756 158.502 17.9176C158.218 17.5597 157.999 17.2415 157.846 16.9631H157.633V19H155.144ZM157.641 12.4545C157.641 13.375 157.775 14.1818 158.042 14.875C158.309 15.5682 158.695 16.1108 159.201 16.5028C159.707 16.8892 160.326 17.0824 161.059 17.0824C161.82 17.0824 162.457 16.8807 162.968 16.4773C163.479 16.0682 163.866 15.5142 164.127 14.8153C164.394 14.1165 164.528 13.3295 164.528 12.4545C164.528 11.5909 164.397 10.8153 164.136 10.1278C163.88 9.44034 163.494 8.89773 162.977 8.5C162.465 8.10227 161.826 7.90341 161.059 7.90341C160.32 7.90341 159.695 8.09375 159.184 8.47443C158.678 8.85511 158.295 9.38636 158.033 10.0682C157.772 10.75 157.641 11.5455 157.641 12.4545ZM169.963 19V5.90909H172.426V7.98864H172.562C172.801 7.28409 173.222 6.73011 173.824 6.3267C174.432 5.91761 175.119 5.71307 175.886 5.71307C176.045 5.71307 176.233 5.71875 176.449 5.73011C176.67 5.74148 176.844 5.75568 176.969 5.77273V8.21023C176.866 8.18182 176.685 8.15057 176.423 8.11648C176.162 8.0767 175.901 8.05682 175.639 8.05682C175.037 8.05682 174.5 8.18466 174.028 8.44034C173.563 8.69034 173.193 9.03977 172.92 9.48864C172.648 9.93182 172.511 10.4375 172.511 11.0057V19H169.963ZM179.174 19V5.90909H181.722V19H179.174ZM180.461 3.8892C180.018 3.8892 179.637 3.74148 179.319 3.44602C179.006 3.14489 178.85 2.78693 178.85 2.37216C178.85 1.9517 179.006 1.59375 179.319 1.29829C179.637 0.997159 180.018 0.846591 180.461 0.846591C180.904 0.846591 181.282 0.997159 181.594 1.29829C181.913 1.59375 182.072 1.9517 182.072 2.37216C182.072 2.78693 181.913 3.14489 181.594 3.44602C181.282 3.74148 180.904 3.8892 180.461 3.8892ZM190.793 19.2642C189.503 19.2642 188.392 18.9886 187.46 18.4375C186.534 17.8807 185.818 17.0994 185.312 16.0938C184.812 15.0824 184.562 13.8977 184.562 12.5398C184.562 11.1989 184.812 10.017 185.312 8.99432C185.818 7.97159 186.523 7.1733 187.426 6.59943C188.335 6.02557 189.398 5.73864 190.614 5.73864C191.352 5.73864 192.068 5.8608 192.761 6.10511C193.455 6.34943 194.077 6.73295 194.628 7.25568C195.179 7.77841 195.614 8.45739 195.932 9.29261C196.25 10.1222 196.409 11.1307 196.409 12.3182V13.2216H186.003V11.3125H193.912C193.912 10.642 193.776 10.0483 193.503 9.53125C193.23 9.00852 192.847 8.59659 192.352 8.29545C191.864 7.99432 191.29 7.84375 190.631 7.84375C189.915 7.84375 189.29 8.01989 188.756 8.37216C188.227 8.71875 187.818 9.1733 187.528 9.7358C187.244 10.2926 187.102 10.8977 187.102 11.5511V13.0426C187.102 13.9176 187.256 14.6619 187.562 15.2756C187.875 15.8892 188.31 16.358 188.866 16.6818C189.423 17 190.074 17.1591 190.818 17.1591C191.301 17.1591 191.741 17.0909 192.139 16.9545C192.537 16.8125 192.881 16.6023 193.17 16.3239C193.46 16.0455 193.682 15.7017 193.835 15.2926L196.247 15.7273C196.054 16.4375 195.707 17.0597 195.207 17.5938C194.713 18.1222 194.091 18.5341 193.341 18.8295C192.597 19.1193 191.747 19.2642 190.793 19.2642ZM201.785 1.54545V19H199.237V1.54545H201.785Z" fill="#272626"/>
<path d="M224.008 13.5199L212.008 18.804V15.3523L220.224 12.054L220.113 12.233V11.8068L220.224 11.9858L212.008 8.6875V5.23579L224.008 10.5199V13.5199Z" fill="#2041B4"/>
</svg>
